<svg width="450" height="94" viewBox="0 0 450 94" fill="none" xmlns="http://www.w3.org/2000/svg">
<g clip-path="url(#clip0_201_1389)">
<rect width="450" height="94" fill="white"/>
<path d="M22.9703 56.8H11.5463L9.91431 64H3.29031L11.3063 30.4H23.2103L31.2263 64H24.6023L22.9703 56.8ZM12.8903 50.752H21.5783L17.6903 33.568H16.8263L12.8903 50.752ZM40.7449 64H34.6969V30.4H40.7449V43.648H41.6089C42.2489 42.336 43.1769 41.328 44.3929 40.624C45.6089 39.888 47.1609 39.52 49.0489 39.52C50.4569 39.52 51.7849 39.792 53.0329 40.336C54.3129 40.88 55.4169 41.68 56.3449 42.736C57.3049 43.76 58.0569 45.024 58.6009 46.528C59.1769 48.032 59.4649 49.744 59.4649 51.664V52.528C59.4649 54.48 59.1929 56.208 58.6489 57.712C58.1049 59.216 57.3689 60.496 56.4409 61.552C55.5129 62.576 54.4089 63.36 53.1289 63.904C51.8809 64.416 50.5209 64.672 49.0489 64.672C47.9609 64.672 47.0169 64.56 46.2169 64.336C45.4169 64.112 44.7129 63.808 44.1049 63.424C43.5289 63.04 43.0329 62.608 42.6169 62.128C42.2329 61.616 41.8969 61.088 41.6089 60.544H40.7449V64ZM47.0809 58.912C48.9689 58.912 50.4889 58.336 51.6409 57.184C52.8249 56 53.4169 54.4 53.4169 52.384V51.808C53.4169 49.792 52.8249 48.208 51.6409 47.056C50.4889 45.872 48.9689 45.28 47.0809 45.28C45.1929 45.28 43.6569 45.888 42.4729 47.104C41.3209 48.288 40.7449 49.856 40.7449 51.808V52.384C40.7449 54.336 41.3209 55.92 42.4729 57.136C43.6569 58.32 45.1929 58.912 47.0809 58.912ZM65.5276 58.24H73.5916V45.952H66.1036V40.192H79.6396V58.24H86.5516V64H65.5276V58.24ZM81.1276 33.136C81.1276 33.776 80.9996 34.384 80.7436 34.96C80.5196 35.504 80.1996 35.984 79.7836 36.4C79.3676 36.784 78.8716 37.104 78.2956 37.36C77.7516 37.584 77.1756 37.696 76.5676 37.696C75.9276 37.696 75.3356 37.584 74.7916 37.36C74.2476 37.104 73.7676 36.784 73.3516 36.4C72.9356 35.984 72.5996 35.504 72.3436 34.96C72.1196 34.384 72.0076 33.776 72.0076 33.136C72.0076 32.496 72.1196 31.904 72.3436 31.36C72.5996 30.784 72.9356 30.304 73.3516 29.92C73.7676 29.504 74.2476 29.184 74.7916 28.96C75.3356 28.704 75.9276 28.576 76.5676 28.576C77.1756 28.576 77.7516 28.704 78.2956 28.96C78.8716 29.184 79.3676 29.504 79.7836 29.92C80.1996 30.304 80.5196 30.784 80.7436 31.36C80.9996 31.904 81.1276 32.496 81.1276 33.136ZM111.478 60.544H110.614C110.358 61.088 110.038 61.616 109.654 62.128C109.302 62.608 108.822 63.04 108.214 63.424C107.638 63.808 106.934 64.112 106.102 64.336C105.302 64.56 104.326 64.672 103.174 64.672C101.702 64.672 100.326 64.416 99.0462 63.904C97.7982 63.36 96.6942 62.576 95.7342 61.552C94.8062 60.496 94.0702 59.216 93.5262 57.712C93.0142 56.208 92.7582 54.48 92.7582 52.528V51.664C92.7582 49.744 93.0302 48.032 93.5742 46.528C94.1502 45.024 94.9182 43.76 95.8782 42.736C96.8702 41.68 98.0062 40.88 99.2862 40.336C100.598 39.792 101.974 39.52 103.414 39.52C105.334 39.52 106.854 39.888 107.974 40.624C109.094 41.328 109.974 42.336 110.614 43.648H111.478V40.192H117.526V69.856C117.526 70.944 117.174 71.84 116.47 72.544C115.798 73.248 114.918 73.6 113.83 73.6H97.7982V67.84H110.182C111.046 67.84 111.478 67.36 111.478 66.4V60.544ZM105.142 58.912C107.03 58.912 108.55 58.32 109.702 57.136C110.886 55.92 111.478 54.336 111.478 52.384V51.808C111.478 49.856 110.886 48.288 109.702 47.104C108.55 45.888 107.03 45.28 105.142 45.28C103.254 45.28 101.718 45.872 100.534 47.056C99.3822 48.208 98.8062 49.792 98.8062 51.808V52.384C98.8062 54.4 99.3822 56 100.534 57.184C101.718 58.336 103.254 58.912 105.142 58.912ZM139.285 60.544C138.645 62.048 137.749 63.12 136.597 63.76C135.445 64.368 134.101 64.672 132.565 64.672C131.125 64.672 129.765 64.4 128.485 63.856C127.237 63.312 126.133 62.512 125.173 61.456C124.213 60.4 123.445 59.12 122.869 57.616C122.325 56.112 122.053 54.4 122.053 52.48V51.712C122.053 49.824 122.325 48.128 122.869 46.624C123.413 45.12 124.149 43.84 125.077 42.784C126.005 41.728 127.077 40.928 128.293 40.384C129.541 39.808 130.869 39.52 132.277 39.52C133.973 39.52 135.333 39.808 136.357 40.384C137.413 40.96 138.245 41.856 138.853 43.072H139.717V40.192H145.765V56.8C145.765 57.76 146.197 58.24 147.061 58.24H147.973V64H143.845C142.757 64 141.861 63.68 141.157 63.04C140.485 62.4 140.149 61.568 140.149 60.544H139.285ZM133.909 58.912C135.669 58.912 137.077 58.336 138.133 57.184C139.189 56 139.717 54.4 139.717 52.384V51.808C139.717 49.792 139.189 48.208 138.133 47.056C137.077 45.872 135.669 45.28 133.909 45.28C132.149 45.28 130.741 45.872 129.685 47.056C128.629 48.208 128.101 49.792 128.101 51.808V52.384C128.101 54.4 128.629 56 129.685 57.184C130.741 58.336 132.149 58.912 133.909 58.912ZM153.699 58.24H161.763V45.952H154.275V40.192H167.811V58.24H174.723V64H153.699V58.24ZM169.299 33.136C169.299 33.776 169.171 34.384 168.915 34.96C168.691 35.504 168.371 35.984 167.955 36.4C167.539 36.784 167.043 37.104 166.467 37.36C165.923 37.584 165.347 37.696 164.739 37.696C164.099 37.696 163.507 37.584 162.963 37.36C162.419 37.104 161.939 36.784 161.523 36.4C161.107 35.984 160.771 35.504 160.515 34.96C160.291 34.384 160.179 33.776 160.179 33.136C160.179 32.496 160.291 31.904 160.515 31.36C160.771 30.784 161.107 30.304 161.523 29.92C161.939 29.504 162.419 29.184 162.963 28.96C163.507 28.704 164.099 28.576 164.739 28.576C165.347 28.576 165.923 28.704 166.467 28.96C167.043 29.184 167.539 29.504 167.955 29.92C168.371 30.304 168.691 30.784 168.915 31.36C169.171 31.904 169.299 32.496 169.299 33.136ZM182.514 58.24H190.866V36.16H182.802V30.4H196.914V58.24H204.69V64H182.514V58.24ZM263.759 64H257.423V53.92C257.423 53.152 257.215 52.528 256.799 52.048C256.415 51.568 255.759 51.328 254.831 51.328H247.535V64H241.199V30.4H254.063C255.791 30.4 257.311 30.64 258.623 31.12C259.935 31.6 261.023 32.272 261.887 33.136C262.783 33.968 263.455 34.944 263.903 36.064C264.383 37.184 264.623 38.384 264.623 39.664V40.816C264.623 42.192 264.255 43.488 263.519 44.704C262.783 45.888 261.647 46.8 260.111 47.44V48.304C261.231 48.432 262.111 48.864 262.751 49.6C263.423 50.336 263.759 51.264 263.759 52.384V64ZM247.535 45.28H253.583C255.119 45.28 256.287 44.928 257.087 44.224C257.887 43.488 258.287 42.464 258.287 41.152V40.576C258.287 39.456 257.887 38.496 257.087 37.696C256.287 36.864 255.119 36.448 253.583 36.448H247.535V45.28ZM286.238 60.544C285.598 62.048 284.702 63.12 283.55 63.76C282.398 64.368 281.054 64.672 279.518 64.672C278.078 64.672 276.718 64.4 275.438 63.856C274.19 63.312 273.086 62.512 272.126 61.456C271.166 60.4 270.398 59.12 269.822 57.616C269.278 56.112 269.006 54.4 269.006 52.48V51.712C269.006 49.824 269.278 48.128 269.822 46.624C270.366 45.12 271.102 43.84 272.03 42.784C272.958 41.728 274.03 40.928 275.246 40.384C276.494 39.808 277.822 39.52 279.23 39.52C280.926 39.52 282.286 39.808 283.31 40.384C284.366 40.96 285.198 41.856 285.806 43.072H286.67V40.192H292.718V56.8C292.718 57.76 293.15 58.24 294.014 58.24H294.926V64H290.798C289.71 64 288.814 63.68 288.11 63.04C287.438 62.4 287.102 61.568 287.102 60.544H286.238ZM280.862 58.912C282.622 58.912 284.03 58.336 285.086 57.184C286.142 56 286.67 54.4 286.67 52.384V51.808C286.67 49.792 286.142 48.208 285.086 47.056C284.03 45.872 282.622 45.28 280.862 45.28C279.102 45.28 277.694 45.872 276.638 47.056C275.582 48.208 275.054 49.792 275.054 51.808V52.384C275.054 54.4 275.582 56 276.638 57.184C277.694 58.336 279.102 58.912 280.862 58.912ZM324.125 64H318.077V47.296C318.077 46.624 317.901 46.128 317.549 45.808C317.229 45.456 316.797 45.28 316.253 45.28C315.613 45.28 315.101 45.472 314.717 45.856C314.365 46.24 314.189 46.816 314.189 47.584V64H308.141V47.296C308.141 46.624 307.949 46.128 307.565 45.808C307.213 45.456 306.781 45.28 306.269 45.28C305.693 45.28 305.213 45.472 304.829 45.856C304.445 46.24 304.253 46.816 304.253 47.584V64H298.205V40.192H304.253V42.496H305.117C305.309 41.632 305.741 40.928 306.413 40.384C307.117 39.808 308.029 39.52 309.149 39.52C310.205 39.52 311.101 39.808 311.837 40.384C312.573 40.928 313.069 41.632 313.325 42.496H314.189C314.445 41.632 314.973 40.928 315.773 40.384C316.605 39.808 317.629 39.52 318.845 39.52C320.445 39.52 321.725 40.064 322.685 41.152C323.645 42.208 324.125 43.68 324.125 45.568V64ZM330.043 58.24H338.107V45.952H330.619V40.192H344.155V58.24H351.067V64H330.043V58.24ZM345.643 33.136C345.643 33.776 345.515 34.384 345.259 34.96C345.035 35.504 344.715 35.984 344.299 36.4C343.883 36.784 343.387 37.104 342.811 37.36C342.267 37.584 341.691 37.696 341.083 37.696C340.443 37.696 339.851 37.584 339.307 37.36C338.763 37.104 338.283 36.784 337.867 36.4C337.451 35.984 337.115 35.504 336.859 34.96C336.635 34.384 336.523 33.776 336.523 33.136C336.523 32.496 336.635 31.904 336.859 31.36C337.115 30.784 337.451 30.304 337.867 29.92C338.283 29.504 338.763 29.184 339.307 28.96C339.851 28.704 340.443 28.576 341.083 28.576C341.691 28.576 342.267 28.704 342.811 28.96C343.387 29.184 343.883 29.504 344.299 29.92C344.715 30.304 345.035 30.784 345.259 31.36C345.515 31.904 345.643 32.496 345.643 33.136ZM357.85 40.192H367.93V43.648H368.794C369.242 42.336 369.994 41.328 371.05 40.624C372.138 39.888 373.434 39.52 374.938 39.52C377.306 39.52 379.21 40.272 380.65 41.776C382.09 43.248 382.81 45.504 382.81 48.544V49.6L376.57 50.176V49.504C376.57 48.192 376.234 47.152 375.562 46.384C374.89 45.584 373.882 45.184 372.538 45.184C371.194 45.184 370.138 45.648 369.37 46.576C368.602 47.504 368.218 48.832 368.218 50.56V58.24H373.69V64H357.274V58.24H362.17V45.952H357.85V40.192ZM393.72 54.064C393.752 54.768 393.912 55.424 394.2 56.032C394.52 56.608 394.936 57.12 395.448 57.568C395.992 57.984 396.6 58.32 397.272 58.576C397.976 58.8 398.712 58.912 399.48 58.912C400.984 58.912 402.136 58.656 402.936 58.144C403.736 57.6 404.312 56.96 404.664 56.224L409.848 59.104C409.56 59.712 409.16 60.352 408.648 61.024C408.136 61.664 407.464 62.256 406.632 62.8C405.832 63.344 404.84 63.792 403.656 64.144C402.504 64.496 401.144 64.672 399.576 64.672C397.784 64.672 396.152 64.384 394.68 63.808C393.208 63.232 391.928 62.4 390.84 61.312C389.784 60.224 388.952 58.896 388.344 57.328C387.768 55.76 387.48 53.984 387.48 52V51.712C387.48 49.888 387.784 48.224 388.392 46.72C389.032 45.216 389.896 43.936 390.984 42.88C392.072 41.824 393.336 41.008 394.776 40.432C396.248 39.824 397.816 39.52 399.48 39.52C401.528 39.52 403.288 39.888 404.76 40.624C406.232 41.328 407.448 42.24 408.408 43.36C409.368 44.448 410.072 45.664 410.52 47.008C410.968 48.32 411.192 49.6 411.192 50.848V54.064H393.72ZM399.432 44.992C397.896 44.992 396.648 45.392 395.688 46.192C394.728 46.96 394.104 47.856 393.816 48.88H405.048C404.856 47.76 404.248 46.832 403.224 46.096C402.232 45.36 400.968 44.992 399.432 44.992ZM439.143 58.24V64H418.407V53.92L433.383 46.624V45.76H418.695V40.192H438.567V49.984L423.591 57.376V58.24H439.143Z" fill="black"/>
</g>
<defs>
<clipPath id="clip0_201_1389">
<rect width="450" height="94" fill="white"/>
</clipPath>
</defs>
</svg>
